<mxfile host="app.diagrams.net" agent="Mozilla/5.0 (Windows NT 10.0; Win64; x64) AppleWebKit/537.36 (KHTML, like Gecko) Chrome/131.0.0.0 Safari/537.36" version="24.8.4">
  <diagram id="k77MC2PDFfTjaYgDYalh" name="Page-1">
    <mxGraphModel dx="1290" dy="522" grid="1" gridSize="10" guides="1" tooltips="1" connect="1" arrows="1" fold="1" page="1" pageScale="1" pageWidth="827" pageHeight="1169" math="0" shadow="0">
      <root>
        <mxCell id="0" />
        <mxCell id="1" parent="0" />
        <mxCell id="bUYtKFwcNEgX6b0Q63g8-1" value="" style="ellipse;html=1;shape=startState;fillColor=#000000;strokeColor=#ff0000;" vertex="1" parent="1">
          <mxGeometry x="50" y="40" width="30" height="30" as="geometry" />
        </mxCell>
        <mxCell id="bUYtKFwcNEgX6b0Q63g8-2" value="" style="edgeStyle=orthogonalEdgeStyle;html=1;verticalAlign=bottom;endArrow=open;endSize=8;strokeColor=#ff0000;rounded=0;" edge="1" source="bUYtKFwcNEgX6b0Q63g8-1" parent="1" target="bUYtKFwcNEgX6b0Q63g8-3">
          <mxGeometry relative="1" as="geometry">
            <mxPoint x="100" y="130" as="targetPoint" />
          </mxGeometry>
        </mxCell>
        <mxCell id="bUYtKFwcNEgX6b0Q63g8-7" style="edgeStyle=orthogonalEdgeStyle;rounded=0;orthogonalLoop=1;jettySize=auto;html=1;" edge="1" parent="1" source="bUYtKFwcNEgX6b0Q63g8-3" target="bUYtKFwcNEgX6b0Q63g8-6">
          <mxGeometry relative="1" as="geometry" />
        </mxCell>
        <mxCell id="bUYtKFwcNEgX6b0Q63g8-3" value="Document Upload" style="rounded=1;whiteSpace=wrap;html=1;" vertex="1" parent="1">
          <mxGeometry x="210" y="25" width="120" height="60" as="geometry" />
        </mxCell>
        <mxCell id="bUYtKFwcNEgX6b0Q63g8-4" value="Student Uploads Document&lt;div&gt;&lt;br&gt;&lt;/div&gt;" style="text;html=1;align=center;verticalAlign=middle;whiteSpace=wrap;rounded=0;" vertex="1" parent="1">
          <mxGeometry x="120" y="40" width="60" height="30" as="geometry" />
        </mxCell>
        <mxCell id="bUYtKFwcNEgX6b0Q63g8-13" style="edgeStyle=orthogonalEdgeStyle;rounded=0;orthogonalLoop=1;jettySize=auto;html=1;" edge="1" parent="1" source="bUYtKFwcNEgX6b0Q63g8-6" target="bUYtKFwcNEgX6b0Q63g8-9">
          <mxGeometry relative="1" as="geometry" />
        </mxCell>
        <mxCell id="bUYtKFwcNEgX6b0Q63g8-6" value="Payment Processing" style="rounded=1;whiteSpace=wrap;html=1;" vertex="1" parent="1">
          <mxGeometry x="470" y="25" width="120" height="60" as="geometry" />
        </mxCell>
        <mxCell id="bUYtKFwcNEgX6b0Q63g8-15" style="edgeStyle=orthogonalEdgeStyle;rounded=0;orthogonalLoop=1;jettySize=auto;html=1;" edge="1" parent="1" source="bUYtKFwcNEgX6b0Q63g8-8" target="bUYtKFwcNEgX6b0Q63g8-14">
          <mxGeometry relative="1" as="geometry" />
        </mxCell>
        <mxCell id="bUYtKFwcNEgX6b0Q63g8-8" value="Payment Confirmed" style="rounded=1;whiteSpace=wrap;html=1;" vertex="1" parent="1">
          <mxGeometry x="390" y="150" width="120" height="60" as="geometry" />
        </mxCell>
        <mxCell id="bUYtKFwcNEgX6b0Q63g8-9" value="Error State" style="rounded=1;whiteSpace=wrap;html=1;" vertex="1" parent="1">
          <mxGeometry x="560" y="150" width="120" height="60" as="geometry" />
        </mxCell>
        <mxCell id="bUYtKFwcNEgX6b0Q63g8-12" style="edgeStyle=orthogonalEdgeStyle;rounded=0;orthogonalLoop=1;jettySize=auto;html=1;entryX=0.5;entryY=0;entryDx=0;entryDy=0;" edge="1" parent="1" source="bUYtKFwcNEgX6b0Q63g8-6" target="bUYtKFwcNEgX6b0Q63g8-8">
          <mxGeometry relative="1" as="geometry" />
        </mxCell>
        <mxCell id="bUYtKFwcNEgX6b0Q63g8-23" style="edgeStyle=orthogonalEdgeStyle;rounded=0;orthogonalLoop=1;jettySize=auto;html=1;entryX=0.5;entryY=0;entryDx=0;entryDy=0;" edge="1" parent="1" source="bUYtKFwcNEgX6b0Q63g8-14" target="bUYtKFwcNEgX6b0Q63g8-21">
          <mxGeometry relative="1" as="geometry" />
        </mxCell>
        <mxCell id="bUYtKFwcNEgX6b0Q63g8-14" value="Print Job Created" style="rounded=1;whiteSpace=wrap;html=1;" vertex="1" parent="1">
          <mxGeometry x="390" y="270" width="120" height="60" as="geometry" />
        </mxCell>
        <mxCell id="bUYtKFwcNEgX6b0Q63g8-16" value="&lt;div&gt;Verifies payment&lt;/div&gt;" style="text;html=1;align=center;verticalAlign=middle;whiteSpace=wrap;rounded=0;" vertex="1" parent="1">
          <mxGeometry x="386" y="110" width="60" height="30" as="geometry" />
        </mxCell>
        <mxCell id="bUYtKFwcNEgX6b0Q63g8-17" value="&lt;div&gt;Rejects payment&lt;/div&gt;" style="text;html=1;align=center;verticalAlign=middle;whiteSpace=wrap;rounded=0;" vertex="1" parent="1">
          <mxGeometry x="630" y="110" width="60" height="30" as="geometry" />
        </mxCell>
        <mxCell id="bUYtKFwcNEgX6b0Q63g8-18" value="&lt;div&gt;Initiates payment&lt;/div&gt;" style="text;html=1;align=center;verticalAlign=middle;whiteSpace=wrap;rounded=0;" vertex="1" parent="1">
          <mxGeometry x="370" y="38" width="60" height="30" as="geometry" />
        </mxCell>
        <mxCell id="bUYtKFwcNEgX6b0Q63g8-20" value="&lt;div&gt;Vendor Creates pirintJob&lt;/div&gt;" style="text;html=1;align=center;verticalAlign=middle;whiteSpace=wrap;rounded=0;" vertex="1" parent="1">
          <mxGeometry x="460" y="220" width="60" height="30" as="geometry" />
        </mxCell>
        <mxCell id="bUYtKFwcNEgX6b0Q63g8-25" style="edgeStyle=orthogonalEdgeStyle;rounded=0;orthogonalLoop=1;jettySize=auto;html=1;entryX=0.5;entryY=0;entryDx=0;entryDy=0;" edge="1" parent="1" source="bUYtKFwcNEgX6b0Q63g8-21" target="bUYtKFwcNEgX6b0Q63g8-24">
          <mxGeometry relative="1" as="geometry" />
        </mxCell>
        <mxCell id="bUYtKFwcNEgX6b0Q63g8-21" value="Queued for Printing" style="rounded=1;whiteSpace=wrap;html=1;" vertex="1" parent="1">
          <mxGeometry x="390" y="380" width="120" height="60" as="geometry" />
        </mxCell>
        <mxCell id="bUYtKFwcNEgX6b0Q63g8-24" value="Printing in progress" style="rounded=1;whiteSpace=wrap;html=1;" vertex="1" parent="1">
          <mxGeometry x="390" y="500" width="120" height="60" as="geometry" />
        </mxCell>
      </root>
    </mxGraphModel>
  </diagram>
</mxfile>
